<?xml version="1.0"?><svg width="1463" height="1595" xmlns="http://www.w3.org/2000/svg">

 <g>
  <title>Layer 1</title>
  <path stroke="black" id="selection_to_path" fill="#ff0000" d="m629,99c0,0 -1,7 -1,7c5,3 5,4 11,5c1,8 4,9 4,13c0,8 -14,13 -21,15c-1,-3 -1,-9 -2,-12c-5,-9 -18,-16 -27,-17c-5,0 -20,1 -23,6c-1,1 -1,2 -1,4c11,2 27,11 25,24c-1,8 -6,13 -8,19c-7,-3 -8,-8 -20,-11c-14,-4 -38,7 -40,21c5,-1 12,-4 16,-3c12,1 19,12 19,24c0,0 -1,7 -1,7c-9,0 -6,-2 -18,-2c-16,0 -34,15 -36,32c12,-4 12,-9 21,-7c5,-3 9,1 13,4c2,2 3,4 4,7c3,5 9,19 8,25c-1,4 -4,4 -7,5c-5,1 -10,4 -14,6c-5,4 -11,13 -12,19c0,0 -1,12 -1,12c6,-3 11,-12 18,-13c7,-2 17,5 21,10c2,2 4,5 6,8c3,4 5,5 5,10c5,4 -6,7 -11,11c-5,4 -12,18 -13,25c-1,4 0,8 2,11c6,-5 6,-11 11,-15c2,-1 4,-1 6,-2c8,-3 10,0 17,4c3,1 9,6 9,10c1,4 -6,8 -9,13c-6,10 -5,12 -5,23c0,3 0,10 4,11c2,1 3,-1 4,-3c0,0 0,-5 0,-5c1,-5 5,-9 9,-12c7,-3 15,-2 21,2c0,0 4,3 4,3c0,0 6,2 6,2c0,0 5,4 5,4c7,3 6,1 11,8c3,0 5,2 3,5c0,1 -9,12 -11,18c0,0 -1,6 -1,6c-1,13 2,11 2,19c0,0 4,5 4,5c12,-3 3,-5 6,-15c4,-9 13,-13 22,-12c6,0 11,3 16,6c0,0 18,6 18,6c0,0 5,3 5,3c2,1 12,4 14,4c3,0 5,-1 9,0c0,0 12,8 12,8c0,0 24,13 24,13c0,0 7,6 7,6c0,0 15,8 15,8c7,5 11,10 21,10c1,4 6,7 10,9c7,4 21,14 28,15c2,6 17,14 23,15c2,4 6,6 10,8c0,0 8,7 8,7c0,0 7,3 7,3c0,0 8,5 8,5c0,0 6,5 6,5c0,0 11,7 11,7c0,0 33,20 33,20c7,4 16,15 24,16c2,7 16,21 22,28c6,10 11,20 13,31c0,0 0,7 0,7c0,0 2,7 2,7c1,3 -1,8 -2,12c0,0 -2,10 -2,10c0,0 -8,15 -8,15c-4,6 -7,10 -13,15c-13,11 -33,19 -50,19c-5,0 -14,-1 -19,-2c0,0 -7,-2 -7,-2c-17,-3 -29,-7 -45,-14c0,0 -34,-15 -34,-15c-5,-3 -11,-6 -16,-7c1,-3 3,-6 2,-9c-1,-3 -8,-7 -11,-9c-10,-8 -22,-14 -31,-23c-9,-9 -10,-16 0,-24c2,-3 4,-4 8,-6c6,-3 4,-4 12,-6c-11,-6 -35,2 -44,10c0,0 -11,12 -11,12c-3,1 -6,-1 -8,-3c-5,-4 -13,-12 -10,-19c3,-7 12,-11 14,-13c1,-2 1,-3 1,-4c0,0 10,-3 10,-3c-5,-2 -13,-1 -18,1c-16,4 -35,17 -37,35c0,4 2,7 0,8c-3,1 -12,-3 -15,-4c0,0 -39,-14 -39,-14c-8,-2 -8,-1 -14,-2c0,0 -9,-3 -9,-3c0,0 -25,-3 -25,-3c0,0 -19,-5 -19,-5c-13,-2 -56,-7 -68,-7c0,0 -18,0 -18,0c0,0 -26,2 -26,2c-7,1 -4,2 -14,2c0,-2 1,-4 0,-5c-2,-3 -12,-3 -15,-3c0,0 -14,1 -14,1c0,0 -20,1 -20,1c-5,0 -14,0 -18,-4c-11,-10 1,-27 3,-35c-10,3 -20,16 -24,26c0,0 -1,6 -1,6c0,0 -3,6 -3,6c0,0 -1,14 -1,14c0,0 3,6 3,6c-10,4 -17,11 -28,10c-14,-1 -14,-24 -12,-34c-5,3 -6,6 -8,11c-6,11 -3,8 -5,18c0,4 -1,6 -1,10c0,0 3,11 3,11c0,4 7,12 6,16c-2,4 -12,9 -17,8c-3,0 -6,-1 -8,-3c-6,-5 -11,-19 -10,-28c-6,6 -6,14 -8,21c2,3 2,11 2,15c2,7 5,13 9,19c4,4 6,6 11,8c3,1 7,1 8,4c1,3 -3,11 -4,14c0,0 -7,30 -7,30c0,0 0,11 0,11c0,0 2,28 2,28c0,0 6,17 6,17c0,0 12,20 12,20c0,0 15,15 15,15c0,0 20,20 20,20c0,0 7,3 7,3c0,0 5,4 5,4c0,0 21,11 21,11c0,0 10,7 10,7c0,0 8,3 8,3c0,0 18,13 18,13c0,0 6,2 6,2c0,0 5,3 5,3c0,0 7,2 7,2c0,0 7,5 7,5c0,0 10,5 10,5c0,0 19,5 19,5c2,5 9,5 13,7c0,0 9,3 9,3c0,0 7,3 7,3c0,0 18,6 18,6c0,0 6,3 6,3c0,0 8,2 8,2c0,0 8,3 8,3c0,0 11,3 11,3c0,0 6,1 6,1c4,2 4,4 13,7c0,0 12,3 12,3c0,0 9,4 9,4c0,0 16,6 16,6c0,0 7,3 7,3c0,0 11,4 11,4c0,0 5,3 5,3c0,0 19,7 19,7c0,0 12,5 12,5c0,0 5,3 5,3c0,0 11,5 11,5c2,0 3,0 4,0c3,4 5,3 9,5c0,0 7,4 7,4c0,0 7,3 7,3c0,0 8,4 8,4c0,0 17,5 17,5c0,0 14,7 14,7c9,4 17,11 27,12c0,0 0,3 0,3c4,1 14,6 16,10c4,0 3,2 9,6c6,3 11,9 16,14c0,0 10,9 10,9c3,2 2,3 7,7c0,0 10,9 10,9c0,0 7,7 7,7c3,3 4,2 8,7c0,0 11,14 11,14c0,0 11,13 11,13c0,0 10,17 10,17c0,0 4,5 4,5c0,0 4,9 4,9c0,0 5,7 5,7c0,0 4,12 4,12c0,0 4,5 4,5c0,0 1,7 1,7c0,0 3,7 3,7c0,0 3,17 3,17c0,0 1,8 1,8c1,5 2,11 2,16c0,0 -2,7 -2,7c-1,5 -2,10 -4,14c-10,20 -32,38 -55,38c-13,0 -23,1 -36,-4c-16,-5 -29,-15 -41,-27c-7,-6 -13,-12 -19,-19c0,0 -9,-12 -9,-12c0,0 -9,-11 -9,-11c0,0 -10,-15 -10,-15c0,0 -4,-9 -4,-9c0,0 -5,-6 -5,-6c0,0 -15,-23 -15,-23c0,0 -37,-38 -37,-38c0,0 -40,-40 -40,-40c0,0 -42,-27 -42,-27c0,0 -12,-8 -12,-8c-10,-5 -29,-9 -41,-10c0,0 -19,-5 -19,-5c-15,-2 -31,-1 -47,-1c-3,0 -6,0 -9,2c-7,3 -13,13 -10,21c5,16 25,10 27,10c0,0 5,1 5,1c0,0 8,2 8,2c4,0 5,-1 11,0c0,0 16,5 16,5c3,1 4,3 8,4c5,2 10,2 15,5c0,0 7,6 7,6c0,0 8,4 8,4c0,0 15,12 15,12c4,3 8,9 14,10c0,0 0,4 0,4c0,0 12,9 12,9c0,0 5,9 5,9c0,0 13,17 13,17c0,0 8,13 8,13c0,0 3,5 3,5c0,0 3,6 3,6c0,0 8,14 8,14c-15,3 -21,23 -20,37c0,0 2,8 2,8c0,0 3,0 3,0c3,-9 2,-14 13,-16c0,0 -3,11 -3,11c0,0 -4,11 -4,11c0,0 0,12 0,12c0,0 4,4 4,4c6,-4 1,-7 7,-14c3,-3 9,-3 9,2c0,3 -2,7 -3,10c-1,4 -2,19 -1,23c0,2 2,3 3,4c0,0 3,-11 3,-11c2,-4 8,-7 13,-5c2,1 4,4 6,5c9,8 5,6 11,15c0,0 7,9 7,9c0,0 7,12 7,12c2,3 8,9 10,10c2,0 4,-1 6,-1c1,6 6,12 8,17c0,0 3,7 3,7c4,9 12,28 21,33c0,0 0,3 0,3c-9,4 -15,14 -18,23c0,0 -2,12 -2,12c0,0 2,13 2,13c0,0 7,16 7,16c0,0 8,-1 8,-1c-3,-12 -2,-30 14,-32c3,-1 13,2 16,3c12,4 14,13 23,17c0,0 15,8 15,8c0,0 9,2 9,2c5,2 10,5 15,6c0,0 13,1 13,1c9,2 10,4 20,2c8,-1 15,-4 23,-6c11,-4 19,-7 28,-15c4,-4 5,-2 6,-8c4,-1 5,-2 6,-6c6,-1 6,-3 10,-8c4,-4 8,-4 9,-11c5,-2 7,-6 9,-10c0,0 12,-23 12,-23c0,0 9,-16 9,-16c2,-6 2,-8 3,-11c0,0 3,-5 3,-5c2,-7 7,-26 7,-33c0,0 2,-14 2,-14c0,0 1,-14 1,-14c0,0 0,-15 0,-15c16,0 30,-8 37,-23c0,0 2,-6 2,-6c1,-6 3,-9 1,-15c-5,5 -6,9 -12,13c-13,10 -23,3 -32,-9c-2,-3 -5,-12 -6,-16c0,0 -1,-7 -1,-7c0,0 -6,-24 -6,-24c0,0 -2,-7 -2,-7c-4,-12 -14,-25 -15,-37c13,-3 25,-26 24,-38c0,-4 -3,-11 -5,-15c-5,9 -5,22 -16,26c-5,2 -11,0 -16,-2c-14,-6 -18,-14 -27,-25c-3,-3 -11,-12 -11,-16c-1,-4 5,-9 8,-12c6,-9 9,-21 6,-31c-1,-4 -2,-5 -5,-7c-1,4 -3,9 -4,13c-3,10 -14,15 -24,11c-14,-5 -12,-7 -22,-16c0,0 -12,-9 -12,-9c-5,-5 -10,-11 -2,-16c2,-10 7,-25 -2,-33c-1,9 -9,26 -20,25c-4,-1 -10,-5 -13,-7c0,0 -19,-15 -19,-15c0,0 -12,-7 -12,-7c0,0 -13,-9 -13,-9c0,0 -10,-4 -10,-4c0,0 -12,-5 -12,-5c-9,-4 -9,-6 -15,-9c0,0 -20,-9 -20,-9c0,0 -12,-7 -12,-7c0,0 -14,-5 -14,-5c0,0 -8,-3 -8,-3c0,0 -9,-4 -9,-4c0,0 -9,-4 -9,-4c0,0 -7,-5 -7,-5c0,0 -28,-12 -28,-12c0,0 -23,-14 -23,-14c0,0 -21,-12 -21,-12c0,0 -12,-6 -12,-6c0,0 -7,-6 -7,-6c0,0 -23,-16 -23,-16c0,0 -11,-7 -11,-7c-4,-4 -11,-11 -15,-15c-15,-16 -22,-27 -25,-49c-1,-4 -2,-7 -2,-11c1,-10 1,-14 5,-24c0,0 3,-8 3,-8c1,-2 3,-3 5,-5c10,-11 25,-18 40,-19c3,0 4,0 7,0c0,0 15,0 15,0c0,0 10,2 10,2c0,0 17,3 17,3c6,2 9,4 12,5c0,0 14,4 14,4c0,0 31,8 31,8c0,0 19,8 19,8c2,1 3,3 6,4c0,0 7,2 7,2c0,0 12,6 12,6c0,0 19,8 19,8c0,0 5,3 5,3c6,3 14,6 18,11c6,0 18,8 23,11c0,0 6,3 6,3c0,0 19,12 19,12c0,0 8,4 8,4c5,2 8,4 12,8c8,5 13,5 21,9c0,0 10,5 10,5c0,0 5,4 5,4c0,0 20,10 20,10c0,0 14,8 14,8c0,0 17,8 17,8c0,0 7,5 7,5c0,0 13,6 13,6c0,0 7,2 7,2c0,0 6,3 6,3c0,0 12,5 12,5c0,0 13,8 13,8c5,2 8,1 12,6c6,0 16,5 21,8c6,3 18,6 25,7c0,0 0,4 0,4c0,0 -11,0 -11,0c0,0 -26,-8 -26,-8c0,0 -8,-4 -8,-4c0,0 -18,-6 -18,-6c0,0 -8,-4 -8,-4c0,0 -9,-3 -9,-3c0,0 -18,-8 -18,-8c0,0 -11,-4 -11,-4c0,0 -23,-11 -23,-11c-5,-3 -16,-10 -20,-14c0,0 -7,-7 -7,-7c-2,-1 -7,-7 -10,-3c-3,3 1,8 3,10c0,0 11,11 11,11c3,3 8,6 10,9c7,2 8,6 13,10c0,0 20,13 20,13c8,6 12,13 24,13c2,4 5,5 9,5c1,4 3,3 6,5c6,4 8,6 16,6c1,4 3,4 7,5c0,0 22,9 22,9c0,0 39,10 39,10c0,0 13,1 13,1c0,0 11,3 11,3c0,0 20,5 20,5c5,2 8,6 17,7c0,0 0,3 0,3c4,1 4,1 6,4c4,1 11,10 12,14c4,10 5,19 1,29c-2,6 -2,7 -7,11c-13,11 -20,12 -36,10c0,0 -9,-1 -9,-1c0,0 -20,-5 -20,-5c0,0 0,8 0,8c6,1 6,2 11,5c0,0 14,4 14,4c4,1 6,4 10,4c2,1 4,1 6,0c14,1 22,-4 32,-13c0,0 6,-4 6,-4c0,0 3,-5 3,-5c5,-7 6,-5 8,-15c0,0 6,0 6,0c0,2 0,5 0,7c-2,6 -9,15 -13,19c-3,2 -12,7 -12,11c0,5 12,5 15,5c8,0 17,-1 25,-5c11,-5 24,-19 29,-31c0,0 4,-20 4,-20c0,-10 -6,-25 -11,-33c-7,-10 -17,-14 -27,-19c-19,-10 -14,-7 -33,-14c0,0 -10,-4 -10,-4c0,0 -23,-7 -23,-7c-6,-1 -10,0 -13,-6c0,0 37,-5 37,-5c4,-3 12,-4 18,-6c13,-6 29,-17 38,-28c5,-5 9,-6 10,-14c5,-2 6,-6 8,-11c4,-6 11,-22 13,-29c0,0 2,-6 2,-6c0,0 4,-13 4,-13c0,0 1,-6 1,-6c2,-14 2,-19 2,-33c0,-9 -1,-7 -2,-15c-4,-30 -15,-46 -31,-70c-6,-8 -11,-15 -17,-22c0,0 -23,-27 -23,-27c0,0 -22,-22 -22,-22c0,0 -34,-33 -34,-33c0,0 -21,-17 -21,-17c0,0 -7,-6 -7,-6c0,0 -14,-11 -14,-11c0,0 -20,-15 -20,-15c0,0 -18,-12 -18,-12c0,0 -6,-3 -6,-3c0,0 -6,-6 -6,-6c0,0 -16,-10 -16,-10c0,0 -7,-7 -7,-7c0,0 -29,-20 -29,-20c0,0 -31,-26 -31,-26c0,0 -25,-19 -25,-19c0,0 -11,-9 -11,-9c0,0 -22,-16 -22,-16c0,0 -7,-3 -7,-3c0,0 -6,-6 -6,-6c0,0 -7,-5 -7,-5c0,0 -9,-9 -9,-9c0,0 -30,-26 -30,-26c0,0 -38,-39 -38,-39c0,0 -11,-17 -11,-17c-8,-11 -18,-22 -19,-36c0,0 -1,-14 -1,-14c1,-2 2,-4 2,-6c0,0 2,-7 2,-7c3,-7 14,-18 20,-22c0,0 16,-7 16,-7c0,0 7,0 7,0c0,0 5,-1 5,-1c5,0 5,1 11,0c2,3 9,4 13,6c0,0 6,4 6,4c12,6 10,2 25,12c0,0 6,3 6,3c0,0 16,16 16,16c0,0 5,7 5,7c0,0 7,7 7,7c3,3 6,9 10,11c0,0 9,21 9,21c0,0 -4,20 -4,20c0,0 0,8 0,8c0,0 4,27 4,27c0,0 6,12 6,12c0,0 6,11 6,11c0,0 4,3 4,3c0,0 6,6 6,6c0,0 10,7 10,7c0,0 20,13 20,13c0,0 5,0 5,0c2,5 5,2 8,6c0,0 4,13 4,13c0,0 1,14 1,14c1,5 5,24 7,29c0,0 4,7 4,7c5,10 7,16 19,18c2,-4 5,-9 3,-14c0,-2 -3,-5 -5,-10c0,0 -3,-16 -3,-16c-1,-6 -5,-14 2,-18c0,11 6,17 4,29c0,0 8,14 8,14c0,0 9,12 9,12c0,0 4,0 4,0c0,2 1,3 2,5c1,3 13,14 15,16c6,3 12,2 14,-6c1,-8 -8,-19 -12,-26c-10,-15 -10,-17 -14,-34c-1,-3 -4,-13 -4,-16c1,-2 1,-5 3,-5c3,-1 12,6 14,8c8,8 8,11 14,18c0,0 7,7 7,7c3,4 5,8 10,9c0,0 12,16 12,16c0,0 5,2 5,2c1,3 12,13 15,15c2,1 3,1 5,1c1,4 5,6 8,9c0,0 12,13 12,13c4,3 9,6 10,11c0,0 11,9 11,9c0,0 21,13 21,13c0,0 13,9 13,9c0,0 15,3 15,3c0,0 9,-2 9,-2c3,-3 4,-2 7,-4c0,0 9,-9 9,-9c7,-6 14,-10 20,-17c4,-4 8,-13 7,-19c-1,-4 -6,-8 -9,-9c0,0 -7,-2 -7,-2c-13,-4 -24,-10 -36,-16c0,0 -39,-21 -39,-21c0,0 -27,-22 -27,-22c-5,-4 -6,-4 -11,-9c0,0 -12,-15 -12,-15c0,0 -5,-5 -5,-5c-3,-4 -6,-9 -8,-13c2,0 3,0 5,1c0,0 15,9 15,9c7,5 7,8 16,9c2,6 4,5 8,8c0,0 5,5 5,5c4,3 5,3 8,5c0,0 5,5 5,5c0,0 7,5 7,5c0,0 8,7 8,7c0,0 8,6 8,6c6,3 7,8 14,8c2,4 3,4 7,6c5,3 13,9 19,9c2,5 4,3 8,7c5,4 22,13 29,15c3,0 8,0 11,0c9,-1 6,-5 14,-7c2,-7 10,-9 15,-14c5,-6 4,-9 7,-15c0,0 11,-17 11,-17c1,-4 1,-6 1,-10c0,-3 0,-6 -1,-9c-4,-10 -13,-8 -21,-12c-5,-2 -4,-3 -11,-5c0,0 -14,-3 -14,-3c0,0 -21,-9 -21,-9c0,0 -16,-6 -16,-6c0,0 -21,-13 -21,-13c0,0 -16,-7 -16,-7c0,0 -34,-21 -34,-21c0,0 -7,-5 -7,-5c0,0 -11,-8 -11,-8c0,0 -17,-15 -17,-15c0,0 -5,-6 -5,-6c0,0 -16,-13 -16,-13c-4,-4 -8,-13 -15,-19c-5,-4 -14,-7 -20,-3c-3,2 -4,6 -8,6c-5,1 -15,-13 -15,-17c0,-1 1,-2 2,-3c3,-3 8,2 10,5c9,-1 15,-5 15,-15c0,-4 0,-7 -2,-11c0,0 -13,-16 -13,-16c-1,-3 -1,-14 -6,-22c-6,-8 -13,-14 -23,-17c-6,-2 -15,-1 -19,-6c-6,-8 -7,-16 -10,-25c0,0 -7,-18 -7,-18c0,0 -8,-14 -8,-14c0,0 -5,-11 -5,-11c0,0 -9,-16 -9,-16c0,0 -5,-11 -5,-11c0,0 -8,-12 -8,-12c0,0 -6,-9 -6,-9c0,0 -4,-6 -4,-6c-3,-5 -3,-7 -9,-10c-14,-8 -25,4 -25,18c0,7 10,23 15,30c2,5 5,11 7,17c0,0 1,8 1,8c0,0 7,12 7,12c4,10 2,11 5,19c0,2 2,5 1,8c-2,3 -7,0 -10,-2c0,0 -7,-3 -7,-3c0,0 -16,-8 -16,-8c0,0 -10,-3 -10,-3c0,0 -12,-7 -12,-7c-4,-2 -4,0 -12,-4c-8,-5 -9,-2 -16,-4c0,0 -16,-4 -16,-4c-28,-7 -51,-12 -81,-13c-9,-1 -19,0 -28,1c0,0 -17,2 -17,2c-5,-1 -6,-9 -13,-16c-8,-7 -20,-12 -31,-13zm234,57c2,0 7,-1 9,-3c1,-2 0,-5 -1,-7c-3,-5 -7,-12 -11,-16c0,0 -16,-19 -16,-19c0,0 -5,-7 -5,-7c-5,-5 -6,-5 -11,-9c-9,-7 -5,-6 -17,-12c0,0 -7,-3 -7,-3c-8,-3 -16,-5 -21,4c-1,2 -3,4 -3,6c0,2 4,12 5,15c4,9 6,8 12,13c3,3 3,6 5,8c5,3 10,5 15,7c0,0 5,3 5,3c0,0 10,4 10,4c0,0 31,16 31,16zm309,674c0,0 2,6 2,6c2,-1 6,-2 8,-3c4,-3 12,-15 15,-19c0,0 6,-7 6,-7c0,0 4,-7 4,-7c0,0 24,-38 24,-38c0,0 7,-12 7,-12c0,0 6,-6 6,-6c0,0 3,-6 3,-6c6,-9 12,-16 20,-23c0,0 4,-4 4,-4c3,-2 9,-5 12,-7c2,-1 4,-2 7,-3c8,-2 19,1 26,5c4,3 6,6 11,7c1,8 7,7 7,16c3,4 5,14 6,19c2,-1 3,-2 4,-4c1,-2 3,-19 4,-23c0,-4 1,-9 1,-13c-1,-21 -14,-43 -32,-53c-8,-4 -17,-5 -25,-7c10,-10 31,-6 41,2c5,3 8,4 9,10c0,0 4,0 4,0c0,3 1,7 3,10c3,3 5,-1 5,-4c0,0 0,-7 0,-7c1,-9 0,-17 -3,-26c-7,-19 -26,-35 -47,-35c-7,0 -12,0 -19,2c-11,4 -19,9 -27,17c-4,4 -12,15 -15,20c0,0 -10,41 -10,41c0,0 -2,8 -2,8c0,0 -2,6 -2,6c0,0 -2,9 -2,9c0,0 -3,7 -3,7c0,0 -1,8 -1,8c0,0 -3,7 -3,7c0,0 -4,11 -4,11c0,0 -2,10 -2,10c0,0 -12,32 -12,32c0,0 -7,14 -7,14c0,0 -6,13 -6,13c0,0 -11,18 -11,18c-3,4 -2,5 -6,9zm-1023,131c0,0 9,0 9,0c-2,-6 -3,-7 -5,-11c-1,-6 0,-12 0,-18c0,-3 0,-4 0,-7c3,-9 12,-21 20,-26c0,0 9,-4 9,-4c0,0 6,-3 6,-3c6,-2 16,-3 22,-3c-2,4 -11,11 -15,16c-9,9 -8,11 -13,22c-1,2 -3,4 -3,6c0,0 -1,15 -1,15c0,0 0,8 0,8c0,7 2,11 4,17c0,0 3,8 3,8c6,10 14,19 23,27c2,3 15,13 18,14c2,1 3,1 5,1c2,6 4,3 10,2c0,0 -7,-10 -7,-10c-11,-18 -15,-39 -2,-57c4,-5 12,-13 18,-13c5,-4 6,-3 12,-4c8,-2 4,-2 15,-2c0,0 19,0 19,0c0,0 12,2 12,2c6,0 7,1 12,2c4,1 5,0 8,0c0,0 18,5 18,5c0,0 6,3 6,3c0,0 11,2 11,2c0,0 8,3 8,3c4,1 5,0 9,3c0,0 13,4 13,4c0,0 26,7 26,7c0,0 20,5 20,5c0,0 24,7 24,7c0,0 9,2 9,2c0,0 19,5 19,5c0,0 12,0 12,0c0,0 7,0 7,0c6,-7 7,-11 -3,-15c0,0 -20,-4 -20,-4c0,0 -29,-10 -29,-10c0,0 -14,-8 -14,-8c0,0 -9,-2 -9,-2c0,0 -14,-6 -14,-6c0,0 -17,-9 -17,-9c0,0 -10,-5 -10,-5c0,0 -26,-15 -26,-15c0,0 -23,-12 -23,-12c0,0 -23,-15 -23,-15c0,0 -25,-15 -25,-15c0,0 -40,-27 -40,-27c-16,-8 -40,-12 -58,-12c-26,0 -50,11 -66,31c-3,3 -7,9 -9,13c0,0 -2,7 -2,7c-1,4 -3,8 -4,12c0,0 0,11 0,11c1,6 7,24 11,29c0,0 20,24 20,24z"/>
 </g>
</svg>