<?xml version="1.0" encoding="utf-8"?>
<!-- Generator: Adobe Illustrator 17.1.0, SVG Export Plug-In . SVG Version: 6.00 Build 0)  -->
<!DOCTYPE svg PUBLIC "-//W3C//DTD SVG 1.1//EN" "http://www.w3.org/Graphics/SVG/1.1/DTD/svg11.dtd">
<svg version="1.1" id="globe" xmlns="http://www.w3.org/2000/svg" xmlns:xlink="http://www.w3.org/1999/xlink" x="0px" y="0px"
	 viewBox="0 0 1009.6607 1010" enable-background="new 0 0 1009.6607 1010" xml:space="preserve">
<path id="globe-globe" fill="#323B5A" d="M504.7481,0C225.8345,0,0,226.0908,0,505.0049C0,783.7959,225.8345,1010,504.7481,1010
	c159.0122,0,300.4419-73.5391,393.1665-188.5312c69.6367-86.6446,111.7461-196.5831,111.7461-316.4639
	c0-119.9219-42.1094-229.9429-111.7461-316.7515C805.19,73.5078,663.7603,0,504.7481,0z M488.274,14.3071
	c5.4023,0,11.0307-0.3696,16.4741-0.3696c24.8144,0,48.8891,1.8076,72.3481,5.4229v2.999v22.185h35.126v39.9327v56.1196h-26.8076
	l-23.0674,22.9248l-55.9761,56.0786l-29.1689,29.21l-24.4243-24.732v-62.7344h24.4243v-29.333h-16.8237h-4.7247V56.7461h30.8125
	V18.4565l0.6163-1.1503L488.274,14.3071z M358.5743,36.2046l1.9926,2.0127l7.251,7.1489l-16.6592,15.8989h-27.5053v27.7315h38.5361
	h19.9458v127.6045h-44.4722v-92.273H306.604V79.876h-19.7202v25.8823l-19.2265,19.3911h-45.0684l-10.4146-10.435l-2.1777-2.1773
	C254.0176,79.2187,304.1392,53.4185,358.5743,36.2046z M44.4522,334.3862c24.5469-66.1025,63.124-125.5092,111.7461-174.5625h3.1635
	l150.5084,1.52l-6.0806,32.2505l-46.2388,2.7935l4.7656,15.4062l10.7841,12.2842l-12.4892,19.9663l-36.7491-4.478l21.5484,29.0869
	l36.9131,26.0059l12.3252,29.2099l15.2212-4.519v-75.3057h41.2885v9.3257H394.44v51.9707h-18.5698v21.5274h-18.5489v13.7627h26.0674
	L366.75,357.7627l-6.9843-7.2305l-16.1045,16.1865v13.6807l-14.605,14.8311l-18.2617,18.5698l-21.7329,21.2812l-14.5025,14.6665
	v45.9317h-19.9253v-24.5274h-66.0005v27.6075l64.5625,61.5839h128.9395v12.2022h45.9927l50.8203,64.2949h39.727v112.1982h-41.4731
	l-21.5484,30.5255v69.0605l-62.8369,46.0137v82.7003l-70.437-63.9258V744.3965l-75.5107-70.5801v-85.7822l-52.0117-38.5772h-46.0748
	l-33.0512-32.8672v-45.4375l-22.103-13.8037l-6.3267,16.9673l10.9282,5.957v38.4947L70.4576,484.998l-13.6807-53.7783
	l-12.3247-2.999v-84.9604V334.3862z M995.898,505.0049c0,7.5185-0.1846,14.9541-0.4522,22.3496l-3.1836-2.958l-94.3476-94.3682
	l-9.4082-9.4902l-10.6192,10.6816l20.0274,20.0074l12.037,12.1196v40.0967h-12.037h-53.7774l-32.5996-32.2911V449.748h-18.8574
	v29.9087l43.7539,43.6304h49.8945v36.3174l-45.4785,44.9033v66.3496v61.4199H806.566v64.9122l-26.9092,26.9082h-63.3916v-57.9678
	l-34.0381-33.8526V625.3379l-42.3965-42.4805h-88.5557l-34.9409-34.8379v-88.4526l29.8677-29.6211h50.5312l32.3331-32.5376h16.9267
	h21.5479v17.1314h118.3818V393.793h-30.1758l17.5625-17.584l17.1113-17.0903h28.8809l-18.2812-18.1177h-27.3409l-28.9843,28.8813
	v22.7193l-30.8741-31.3057h-19.3711l28.3477,28.5937h-23.0059l-18.4677-18.5283v-12.2426l-27.5254-27.4439l-20.6651,20.5415
	l-17.83,17.666v32.086h-35.2286v-15.0367v-49.0942h13.043v-11.75l8.3203-8.4629l-15.3867-15.2832l-19.9248,20.0078l-16.1045-16.1045
	l8.5039-8.6279V282.416v-30.6069h32.2305v18.2822l27.5459,27.5254h20.1719v-21.5273h61.3173v-21.2813h24.5469v-30.73h-26.0058
	v-29.0459h-13.7637v58.3379l-11.0508,10.4766l-21.5479-9.0386l-36.6669-8.956l2.999-35.4961l36.9346-27.731l21.5468-36.8516
	l40.0362-9.1616l-4.7247,18.4053l25.9854,4.519l-1.4376,18.5699l29.1484-3.2456l13.8653-9.0796l2.8965-15.2007h57.414h4.1699
	c19.7403,18.7339,37.4062,39.6455,53.7774,61.2964C959.231,293.6729,995.898,394.9844,995.898,505.0049z"/>
</svg>
